<svg width="42" height="37" viewBox="0 0 42 37" fill="none" xmlns="http://www.w3.org/2000/svg">
<g filter="url(#filter0_dd_5_23)">
<path d="M36.8511 9.76553L12.7306 0.829306C12.4221 0.7153 12.0793 0.873058 11.9655 1.18182C11.9653 1.18207 11.9653 1.18232 11.965 1.18257L9.29489 8.45071C9.18138 8.75948 9.33964 9.102 9.64841 9.2155H9.64891L12.4448 10.2421L11.8288 11.9204C11.7155 12.2292 11.8738 12.5712 12.1825 12.6847L17.7753 14.738L17.3643 15.8569C16.9908 16.8589 17.3393 17.987 18.2134 18.6032V21.6434H10.1974C9.80942 20.7564 9.01537 20.1123 8.06707 19.9158V18.6648C8.06707 18.3357 7.80056 18.069 7.47129 18.069H5.06941C4.7404 18.069 4.47363 18.3357 4.47363 18.6648V28.1965C4.47363 28.5258 4.7404 28.7923 5.06941 28.7923H7.47129C7.80056 28.7923 8.06707 28.5258 8.06707 28.1965V26.9457C9.01537 26.7489 9.80942 26.1051 10.1974 25.2178H18.2134V25.8136C18.2134 26.8007 19.0134 27.601 20.0005 27.601C20.9875 27.601 21.7878 26.8007 21.7878 25.8136V19.214C22.3293 18.9455 22.7476 18.4797 22.9561 17.9122L23.3671 16.7934L28.4004 18.6403C28.4662 18.6645 28.5354 18.6768 28.6054 18.6768C28.8552 18.6768 29.0787 18.521 29.1649 18.2865L29.3882 17.6782C31.3268 18.043 33.1939 16.7672 33.5584 14.8288C33.6932 14.1125 33.6057 13.3722 33.3077 12.7072L36.9191 10.8528C37.2119 10.7028 37.3276 10.3438 37.1776 10.051C37.1096 9.91804 36.9941 9.81553 36.8541 9.76378L36.8511 9.76553ZM19.4047 19.146L19.898 19.3248C20.1225 19.4053 20.358 19.4515 20.5962 19.4618V21.6434H19.4047V19.146ZM6.87576 27.601H5.6652V19.2605H6.87576V27.601ZM9.25864 24.0265C9.25764 24.7836 8.78061 25.4584 8.06707 25.7119V21.1496C8.78061 21.4029 9.25764 22.0777 9.25864 22.835V24.0265ZM10.4687 22.835H20.5962V24.0265H10.4687V22.835ZM20.0005 26.4094C19.6714 26.4094 19.4047 26.1426 19.4047 25.8136V25.2178H20.5962V25.8136C20.5962 26.1426 20.3295 26.4094 20.0005 26.4094ZM22.2488 16.3831L21.8378 17.5019C21.6108 18.119 20.9265 18.4355 20.309 18.209L19.1884 17.7985C18.5709 17.5717 18.2539 16.8872 18.4806 16.2694C18.4806 16.2694 18.4806 16.2694 18.4806 16.2691L18.8919 15.1511L21.9116 16.2596L22.2488 16.3831ZM28.2521 17.3184L13.1523 11.7736L13.5636 10.6548L22.5111 13.9405C22.7229 14.0175 22.9604 13.9693 23.1251 13.8152L24.797 12.2414L29.4842 13.963L28.2521 17.3184ZM32.2801 14.9901C31.9026 16.0079 30.8873 16.6439 29.807 16.5391L30.7275 14.0315L32.2311 13.2572C32.4664 13.8077 32.4839 14.4273 32.2801 14.9901ZM30.2693 12.9302C30.2377 12.9329 30.2065 12.9384 30.1757 12.9467L24.8642 10.9963C24.6525 10.9186 24.4149 10.9668 24.2504 11.1214L22.5766 12.6954L10.6187 8.3042L12.8773 2.15438L35.1675 10.4126L30.2693 12.9302Z" fill="#E3B873"/>
<path d="M16.1292 8.70337L15.6038 10.1233M18.419 9.5434L17.8935 10.9633M20.641 10.3699L20.1155 11.7898" stroke="#E3B873" stroke-linecap="round"/>
</g>
<defs>
<filter id="filter0_dd_5_23" x="0.473633" y="0.792236" width="40.7697" height="36" filterUnits="userSpaceOnUse" color-interpolation-filters="sRGB">
<feFlood flood-opacity="0" result="BackgroundImageFix"/>
<feColorMatrix in="SourceAlpha" type="matrix" values="0 0 0 0 0 0 0 0 0 0 0 0 0 0 0 0 0 0 127 0" result="hardAlpha"/>
<feOffset dy="4"/>
<feGaussianBlur stdDeviation="2"/>
<feComposite in2="hardAlpha" operator="out"/>
<feColorMatrix type="matrix" values="0 0 0 0 0 0 0 0 0 0 0 0 0 0 0 0 0 0 0.25 0"/>
<feBlend mode="normal" in2="BackgroundImageFix" result="effect1_dropShadow_5_23"/>
<feColorMatrix in="SourceAlpha" type="matrix" values="0 0 0 0 0 0 0 0 0 0 0 0 0 0 0 0 0 0 127 0" result="hardAlpha"/>
<feOffset dy="4"/>
<feGaussianBlur stdDeviation="2"/>
<feComposite in2="hardAlpha" operator="out"/>
<feColorMatrix type="matrix" values="0 0 0 0 0 0 0 0 0 0 0 0 0 0 0 0 0 0 0.25 0"/>
<feBlend mode="normal" in2="effect1_dropShadow_5_23" result="effect2_dropShadow_5_23"/>
<feBlend mode="normal" in="SourceGraphic" in2="effect2_dropShadow_5_23" result="shape"/>
</filter>
</defs>
</svg>
